#usda 1.0
(
    defaultPrim = "JETIN"
    metersPerUnit = 1
    subLayers = [
        @../JETIN_Rover_Start_20261009.usda@
    ]
    upAxis = "Z"
)

def "Task"
{
    def Mesh "LeftTrack" (
        prepend apiSchemas = ["PhysicsCollisionAPI", "PhysicsMeshCollisionAPI", "MaterialBindingAPI"]
    )
    {
        uniform bool doubleSided = 1
        int[] faceVertexCounts = [3, 3, 3, 3, 3, 3, 3, 3, 3, 3, 3, 3, 3, 3, 3, 3, 3, 3, 3, 3, 3, 3, 3, 3, 3, 3, 3, 3, 3, 3, 3, 3, 3, 3, 3, 3, 3, 3, 3, 3, 3, 3, 3, 3, 3, 3, 3, 3, 3, 3, 3, 3, 3, 3, 3, 3, 3, 3, 3, 3, 3, 3, 3, 3, 3, 3, 3, 3, 3, 3, 3, 3, 3, 3, 3, 3, 3, 3, 3, 3, 3, 3, 3, 3, 3, 3, 3, 3, 3, 3, 3, 3, 3, 3, 3, 3, 3, 3, 3, 3, 3, 3, 3, 3, 3, 3, 3, 3, 3, 3, 3, 3, 3, 3, 3, 3, 3, 3, 3, 3, 3, 3, 3, 3, 3, 3, 3, 3, 3, 3, 3, 3, 3, 3, 3, 3, 3, 3, 3, 3, 3, 3, 3, 3, 3, 3, 3, 3, 3, 3, 3, 3, 3, 3, 3, 3, 3, 3, 3, 3, 3, 3, 3, 3, 3, 3, 3, 3, 3, 3, 3, 3, 3, 3, 3, 3, 3, 3, 3, 3, 3, 3, 3, 3, 3, 3, 3, 3, 3, 3, 3, 3, 3, 3, 3, 3, 3, 3, 3, 3, 3, 3, 3, 3, 3, 3, 3, 3, 3, 3, 3, 3, 3, 3, 3, 3, 3, 3, 3, 3, 3, 3, 3, 3, 3, 3, 3, 3, 3, 3, 3, 3, 3, 3, 3, 3, 3, 3, 3, 3, 3, 3, 3, 3, 3, 3, 3, 3, 3, 3, 3, 3, 3, 3, 3, 3, 3, 3, 3, 3, 3, 3, 3, 3, 3, 3, 3, 3, 3, 3, 3, 3, 3, 3, 3, 3, 3, 3, 3, 3, 3, 3, 3, 3, 3, 3, 3, 3, 3, 3, 3, 3, 3, 3, 3, 3, 3, 3, 3, 3, 3, 3, 3, 3, 3, 3, 3, 3, 3, 3, 3, 3, 3, 3, 3, 3, 3, 3, 3, 3, 3, 3, 3, 3, 3, 3, 3, 3, 3, 3, 3, 3, 3, 3, 3, 3, 3, 3, 3, 3, 3, 3, 3, 3, 3, 3, 3, 3, 3, 3, 3, 3, 3, 3, 3, 3, 3, 3, 3, 3, 3, 3, 3, 3, 3, 3, 3, 3, 3, 3, 3, 3, 3, 3, 3, 3, 3, 3, 3, 3, 3, 3, 3, 3, 3, 3, 3, 3, 3, 3, 3, 3, 3, 3, 3, 3, 3, 3, 3, 3, 3, 3, 3, 3, 3, 3, 3, 3, 3, 3, 3, 3, 3, 3, 3, 3, 3, 3, 3, 3, 3, 3, 3, 3, 3, 3, 3, 3, 3, 3, 3, 3, 3, 3, 3, 3, 3, 3, 3, 3, 3, 3, 3, 3, 3, 3, 3, 3, 3, 3, 3, 3, 3, 3, 3, 3, 3, 3, 3, 3, 3, 3, 3, 3, 3, 3, 3, 3, 3, 3, 3, 3, 3, 3, 3, 3, 3, 3, 3, 3]
        int[] faceVertexIndices = [0, 2, 3, 0, 3, 1, 2, 4, 5, 2, 5, 3, 4, 6, 7, 4, 7, 5, 6, 8, 9, 6, 9, 7, 8, 10, 11, 8, 11, 9, 10, 12, 13, 10, 13, 11, 12, 14, 15, 12, 15, 13, 14, 16, 17, 14, 17, 15, 16, 18, 19, 16, 19, 17, 18, 20, 21, 18, 21, 19, 20, 22, 23, 20, 23, 21, 22, 24, 25, 22, 25, 23, 24, 26, 27, 24, 27, 25, 26, 28, 29, 26, 29, 27, 28, 30, 31, 28, 31, 29, 30, 32, 33, 30, 33, 31, 32, 34, 35, 32, 35, 33, 34, 36, 37, 34, 37, 35, 36, 38, 39, 36, 39, 37, 38, 40, 41, 38, 41, 39, 40, 42, 43, 40, 43, 41, 42, 44, 45, 42, 45, 43, 44, 46, 47, 44, 47, 45, 46, 48, 49, 46, 49, 47, 48, 50, 51, 48, 51, 49, 50, 52, 53, 50, 53, 51, 52, 54, 55, 52, 55, 53, 54, 56, 57, 54, 57, 55, 56, 58, 59, 56, 59, 57, 58, 60, 61, 58, 61, 59, 60, 62, 63, 60, 63, 61, 62, 64, 65, 62, 65, 63, 64, 66, 67, 64, 67, 65, 66, 68, 69, 66, 69, 67, 68, 70, 71, 68, 71, 69, 70, 72, 73, 70, 73, 71, 72, 74, 75, 72, 75, 73, 74, 76, 77, 74, 77, 75, 76, 78, 79, 76, 79, 77, 78, 80, 81, 78, 81, 79, 80, 82, 83, 80, 83, 81, 82, 84, 85, 82, 85, 83, 84, 86, 87, 84, 87, 85, 86, 88, 89, 86, 89, 87, 88, 90, 91, 88, 91, 89, 90, 92, 93, 90, 93, 91, 92, 94, 95, 92, 95, 93, 94, 96, 97, 94, 97, 95, 96, 98, 99, 96, 99, 97, 98, 100, 101, 98, 101, 99, 100, 102, 103, 100, 103, 101, 102, 104, 105, 102, 105, 103, 104, 106, 107, 104, 107, 105, 106, 108, 109, 106, 109, 107, 108, 110, 111, 108, 111, 109, 110, 112, 113, 110, 113, 111, 112, 114, 115, 112, 115, 113, 114, 116, 117, 114, 117, 115, 116, 118, 119, 116, 119, 117, 118, 120, 121, 118, 121, 119, 120, 122, 123, 120, 123, 121, 122, 124, 125, 122, 125, 123, 124, 126, 127, 124, 127, 125, 126, 128, 129, 126, 129, 127, 128, 130, 131, 128, 131, 129, 130, 132, 133, 130, 133, 131, 132, 134, 135, 132, 135, 133, 134, 136, 137, 134, 137, 135, 136, 138, 139, 136, 139, 137, 138, 140, 141, 138, 141, 139, 140, 142, 143, 140, 143, 141, 142, 144, 145, 142, 145, 143, 144, 146, 147, 144, 147, 145, 146, 148, 149, 146, 149, 147, 148, 150, 151, 148, 151, 149, 150, 152, 153, 150, 153, 151, 152, 154, 155, 152, 155, 153, 154, 156, 157, 154, 157, 155, 156, 158, 159, 156, 159, 157, 158, 160, 161, 158, 161, 159, 160, 162, 163, 160, 163, 161, 162, 164, 165, 162, 165, 163, 164, 166, 167, 164, 167, 165, 166, 168, 169, 166, 169, 167, 168, 170, 171, 168, 171, 169, 170, 172, 173, 170, 173, 171, 172, 174, 175, 172, 175, 173, 174, 176, 177, 174, 177, 175, 176, 178, 179, 176, 179, 177, 178, 180, 181, 178, 181, 179, 180, 182, 183, 180, 183, 181, 182, 184, 185, 182, 185, 183, 184, 186, 187, 184, 187, 185, 186, 188, 189, 186, 189, 187, 188, 190, 191, 188, 191, 189, 190, 192, 193, 190, 193, 191, 192, 194, 195, 192, 195, 193, 194, 196, 197, 194, 197, 195, 196, 198, 199, 196, 199, 197, 198, 200, 201, 198, 201, 199, 200, 202, 203, 200, 203, 201, 202, 204, 205, 202, 205, 203, 204, 206, 207, 204, 207, 205, 206, 208, 209, 206, 209, 207, 208, 210, 211, 208, 211, 209, 210, 212, 213, 210, 213, 211, 212, 214, 215, 212, 215, 213, 214, 216, 217, 214, 217, 215, 216, 218, 219, 216, 219, 217, 218, 220, 221, 218, 221, 219, 220, 222, 223, 220, 223, 221, 222, 224, 225, 222, 225, 223, 224, 226, 227, 224, 227, 225, 226, 228, 229, 226, 229, 227, 228, 230, 231, 228, 231, 229, 230, 232, 233, 230, 233, 231, 232, 234, 235, 232, 235, 233, 234, 236, 237, 234, 237, 235, 236, 238, 239, 236, 239, 237, 238, 240, 241, 238, 241, 239, 240, 242, 243, 240, 243, 241, 242, 244, 245, 242, 245, 243, 244, 246, 247, 244, 247, 245, 246, 248, 249, 246, 249, 247, 248, 250, 251, 248, 251, 249, 250, 252, 253, 250, 253, 251, 252, 254, 255, 252, 255, 253, 254, 256, 257, 254, 257, 255, 256, 258, 259, 256, 259, 257, 258, 260, 261, 258, 261, 259, 260, 262, 263, 260, 263, 261, 262, 264, 265, 262, 265, 263, 264, 266, 267, 264, 267, 265, 266, 268, 269, 266, 269, 267, 268, 270, 271, 268, 271, 269, 270, 272, 273, 270, 273, 271, 272, 274, 275, 272, 275, 273, 274, 276, 277, 274, 277, 275, 276, 278, 279, 276, 279, 277, 278, 280, 281, 278, 281, 279, 280, 282, 283, 280, 283, 281, 282, 284, 285, 282, 285, 283, 284, 286, 287, 284, 287, 285, 286, 288, 289, 286, 289, 287, 288, 290, 291, 288, 291, 289, 290, 292, 293, 290, 293, 291, 292, 294, 295, 292, 295, 293, 294, 296, 297, 294, 297, 295, 296, 298, 299, 296, 299, 297, 298, 300, 301, 298, 301, 299, 300, 302, 303, 300, 303, 301, 302, 304, 305, 302, 305, 303, 304, 306, 307, 304, 307, 305, 306, 308, 309, 306, 309, 307, 308, 310, 311, 308, 311, 309, 310, 312, 313, 310, 313, 311, 312, 314, 315, 312, 315, 313, 314, 316, 317, 314, 317, 315, 316, 318, 319, 316, 319, 317, 318, 320, 321, 318, 321, 319, 320, 322, 323, 320, 323, 321, 322, 324, 325, 322, 325, 323, 324, 326, 327, 324, 327, 325, 326, 328, 329, 326, 329, 327, 328, 330, 331, 328, 331, 329, 330, 332, 333, 330, 333, 331, 332, 334, 335, 332, 335, 333, 334, 336, 337, 334, 337, 335, 336, 338, 339, 336, 339, 337, 338, 340, 341, 338, 341, 339, 340, 342, 343, 340, 343, 341, 342, 344, 345, 342, 345, 343, 344, 346, 347, 344, 347, 345, 346, 348, 349, 346, 349, 347, 348, 350, 351, 348, 351, 349, 350, 352, 353, 350, 353, 351, 352, 354, 355, 352, 355, 353, 354, 356, 357, 354, 357, 355, 356, 358, 359, 356, 359, 357, 358, 360, 361, 358, 361, 359, 360, 362, 363, 360, 363, 361, 362, 364, 365, 362, 365, 363, 364, 366, 367, 364, 367, 365, 366, 368, 369, 366, 369, 367, 368, 370, 371, 368, 371, 369, 370, 372, 373, 370, 373, 371, 372, 374, 375, 372, 375, 373, 374, 376, 377, 374, 377, 375, 376, 378, 379, 376, 379, 377, 378, 380, 381, 378, 381, 379, 380, 382, 383, 380, 383, 381, 382, 384, 385, 382, 385, 383, 384, 386, 387, 384, 387, 385, 386, 388, 389, 386, 389, 387, 388, 390, 391, 388, 391, 389, 390, 392, 393, 390, 393, 391, 392, 394, 395, 392, 395, 393, 394, 396, 397, 394, 397, 395, 396, 398, 399, 396, 399, 397, 398, 400, 401, 398, 401, 399, 400, 402, 403, 400, 403, 401, 402, 404, 405, 402, 405, 403, 404, 406, 407, 404, 407, 405, 406, 408, 409, 406, 409, 407, 408, 410, 411, 408, 411, 409, 410, 412, 413, 410, 413, 411, 412, 414, 415, 412, 415, 413, 414, 416, 417, 414, 417, 415, 416, 418, 419, 416, 419, 417, 418, 420, 421, 418, 421, 419, 420, 422, 423, 420, 423, 421, 422, 424, 425, 422, 425, 423, 424, 426, 427, 424, 427, 425, 426, 428, 429, 426, 429, 427, 428, 430, 431, 428, 431, 429, 430, 432, 433, 430, 433, 431, 432, 434, 435, 432, 435, 433, 434, 436, 437, 434, 437, 435, 436, 438, 439, 436, 439, 437, 438, 440, 441, 438, 441, 439, 440, 442, 443, 440, 443, 441, 442, 444, 445, 442, 445, 443, 444, 446, 447, 444, 447, 445, 446, 448, 449, 446, 449, 447, 448, 450, 451, 448, 451, 449, 450, 452, 453, 450, 453, 451, 452, 454, 455, 452, 455, 453, 454, 456, 457, 454, 457, 455, 456, 458, 459, 456, 459, 457, 458, 460, 461, 458, 461, 459, 460, 462, 463, 460, 463, 461, 462, 464, 465, 462, 465, 463, 464, 466, 467, 464, 467, 465, 466, 468, 469, 466, 469, 467, 468, 470, 471, 468, 471, 469, 470, 472, 473, 470, 473, 471, 472, 474, 475, 472, 475, 473, 474, 476, 477, 474, 477, 475, 476, 478, 479, 476, 479, 477, 478, 480, 481, 478, 481, 479]
        rel material:binding:physics = </Environment/GroundMaterial>
        uniform token physics:approximation = "none"
        point3f[] points = [(0.6, 0.16, 0), (0.6, 0.58, 0), (0.6075, 0.16, 9.312825e-8), (0.6075, 0.58, 9.312825e-8), (0.615, 0.16, 0.0000014873445), (0.615, 0.58, 0.0000014873445), (0.6225, 0.16, 0.000007506887), (0.6225, 0.58, 0.000007506887), (0.63, 0.16, 0.000023624938), (0.63, 0.58, 0.000023624938), (0.6375, 0.16, 0.000057363875), (0.6375, 0.58, 0.000057363875), (0.645, 0.16, 0.00011815773), (0.645, 0.58, 0.00011815773), (0.6525, 0.16, 0.00021717901), (0.6525, 0.58, 0.00021717901), (0.66, 0.16, 0.00036713234), (0.66, 0.58, 0.00036713234), (0.6675, 0.16, 0.0005820184), (0.6675, 0.58, 0.0005820184), (0.675, 0.16, 0.00087687117), (0.675, 0.58, 0.00087687117), (0.6825, 0.16, 0.0012674734), (0.6825, 0.58, 0.0012674734), (0.69, 0.16, 0.0017700535), (0.69, 0.58, 0.0017700535), (0.6975, 0.16, 0.0024009696), (0.6975, 0.58, 0.0024009696), (0.705, 0.16, 0.0031763848), (0.705, 0.58, 0.0031763848), (0.7125, 0.16, 0.004111939), (0.7125, 0.58, 0.004111939), (0.72, 0.16, 0.0052224225), (0.72, 0.58, 0.0052224225), (0.7275, 0.16, 0.0065214573), (0.7275, 0.58, 0.0065214573), (0.735, 0.16, 0.008021186), (0.735, 0.58, 0.008021186), (0.7425, 0.16, 0.009731984), (0.7425, 0.58, 0.009731984), (0.75, 0.16, 0.011662186), (0.75, 0.58, 0.011662186), (0.7575, 0.16, 0.013817844), (0.7575, 0.58, 0.013817844), (0.765, 0.16, 0.01620251), (0.765, 0.58, 0.01620251), (0.7725, 0.16, 0.018817052), (0.7725, 0.58, 0.018817052), (0.78, 0.16, 0.021659516), (0.78, 0.58, 0.021659516), (0.7875, 0.16, 0.024725007), (0.7875, 0.58, 0.024725007), (0.795, 0.16, 0.028005634), (0.795, 0.58, 0.028005634), (0.8025, 0.16, 0.03149048), (0.8025, 0.58, 0.03149048), (0.81, 0.16, 0.035165623), (0.81, 0.58, 0.035165623), (0.8175, 0.16, 0.0390142), (0.8175, 0.58, 0.0390142), (0.825, 0.16, 0.043016512), (0.825, 0.58, 0.043016512), (0.8325, 0.16, 0.047150172), (0.8325, 0.58, 0.047150172), (0.84, 0.16, 0.051390294), (0.84, 0.58, 0.051390294), (0.8475, 0.16, 0.055709727), (0.8475, 0.58, 0.055709727), (0.855, 0.16, 0.060079306), (0.855, 0.58, 0.060079306), (0.8625, 0.16, 0.06446815), (0.8625, 0.58, 0.06446815), (0.87, 0.16, 0.06884401), (0.87, 0.58, 0.06884401), (0.8775, 0.16, 0.07317357), (0.8775, 0.58, 0.07317357), (0.885, 0.16, 0.07742284), (0.885, 0.58, 0.07742284), (0.8925, 0.16, 0.08155757), (0.8925, 0.58, 0.08155757), (0.9, 0.16, 0.0855436), (0.9, 0.58, 0.0855436), (0.9075, 0.16, 0.08934725), (0.9075, 0.58, 0.08934725), (0.915, 0.16, 0.09293576), (0.915, 0.58, 0.09293576), (0.9225, 0.16, 0.09627766), (0.9225, 0.58, 0.09627766), (0.93, 0.16, 0.09934313), (0.93, 0.58, 0.09934313), (0.9375, 0.16, 0.10210439), (0.9375, 0.58, 0.10210439), (0.945, 0.16, 0.104536034), (0.945, 0.58, 0.104536034), (0.9525, 0.16, 0.10662876), (0.9525, 0.58, 0.10662876), (0.96, 0.16, 0.10854102), (0.96, 0.58, 0.10854102), (0.9675, 0.16, 0.11032023), (0.9675, 0.58, 0.11032023), (0.975, 0.16, 0.11196152), (0.975, 0.58, 0.11196152), (0.9825, 0.16, 0.11346039), (0.9825, 0.58, 0.11346039), (0.99, 0.16, 0.114812724), (0.99, 0.58, 0.114812724), (0.9975, 0.16, 0.11601482), (0.9975, 0.58, 0.11601482), (1.005, 0.16, 0.11706339), (1.005, 0.58, 0.11706339), (1.0125, 0.16, 0.11795555), (1.0125, 0.58, 0.11795555), (1.02, 0.16, 0.11868886), (1.02, 0.58, 0.11868886), (1.0275, 0.16, 0.1192613), (1.0275, 0.58, 0.1192613), (1.035, 0.16, 0.119671315), (1.035, 0.58, 0.119671315), (1.0425, 0.16, 0.11991777), (1.0425, 0.58, 0.11991777), (1.05, 0.16, 0.12), (1.05, 0.58, 0.12), (1.0575, 0.16, 0.11991777), (1.0575, 0.58, 0.11991777), (1.065, 0.16, 0.119671315), (1.065, 0.58, 0.119671315), (1.0725, 0.16, 0.1192613), (1.0725, 0.58, 0.1192613), (1.08, 0.16, 0.11868886), (1.08, 0.58, 0.11868886), (1.0875, 0.16, 0.11795555), (1.0875, 0.58, 0.11795555), (1.095, 0.16, 0.11706339), (1.095, 0.58, 0.11706339), (1.1025, 0.16, 0.11601482), (1.1025, 0.58, 0.11601482), (1.11, 0.16, 0.114812724), (1.11, 0.58, 0.114812724), (1.1175, 0.16, 0.11346039), (1.1175, 0.58, 0.11346039), (1.125, 0.16, 0.11196152), (1.125, 0.58, 0.11196152), (1.1325, 0.16, 0.11032023), (1.1325, 0.58, 0.11032023), (1.14, 0.16, 0.10854102), (1.14, 0.58, 0.10854102), (1.1475, 0.16, 0.10662876), (1.1475, 0.58, 0.10662876), (1.155, 0.16, 0.10458869), (1.155, 0.58, 0.10458869), (1.1625, 0.16, 0.10242641), (1.1625, 0.58, 0.10242641), (1.17, 0.16, 0.100147836), (1.17, 0.58, 0.100147836), (1.1775, 0.16, 0.097759224), (1.1775, 0.58, 0.097759224), (1.185, 0.16, 0.09526712), (1.185, 0.58, 0.09526712), (1.1925, 0.16, 0.092678346), (1.1925, 0.58, 0.092678346), (1.2, 0.16, 0.09), (1.2, 0.58, 0.09), (1.2075, 0.16, 0.08723943), (1.2075, 0.58, 0.08723943), (1.215, 0.16, 0.0844042), (1.215, 0.58, 0.0844042), (1.2225, 0.16, 0.08150208), (1.2225, 0.58, 0.08150208), (1.23, 0.16, 0.07854102), (1.23, 0.58, 0.07854102), (1.2375, 0.16, 0.07552914), (1.2375, 0.58, 0.07552914), (1.245, 0.16, 0.0724747), (1.245, 0.58, 0.0724747), (1.2525, 0.16, 0.069386065), (1.2525, 0.58, 0.069386065), (1.26, 0.16, 0.06627171), (1.26, 0.58, 0.06627171), (1.2675, 0.16, 0.063140154), (1.2675, 0.58, 0.063140154), (1.275, 0.16, 0.06), (1.275, 0.58, 0.06), (1.2825, 0.16, 0.056859843), (1.2825, 0.58, 0.056859843), (1.29, 0.16, 0.053728294), (1.29, 0.58, 0.053728294), (1.2975, 0.16, 0.050613932), (1.2975, 0.58, 0.050613932), (1.305, 0.16, 0.047525298), (1.305, 0.58, 0.047525298), (1.3125, 0.16, 0.044470858), (1.3125, 0.58, 0.044470858), (1.32, 0.16, 0.04145898), (1.32, 0.58, 0.04145898), (1.3275, 0.16, 0.038497925), (1.3275, 0.58, 0.038497925), (1.335, 0.16, 0.0355958), (1.335, 0.58, 0.0355958), (1.3425, 0.16, 0.03276057), (1.3425, 0.58, 0.03276057), (1.35, 0.16, 0.03), (1.35, 0.58, 0.03), (1.3575, 0.16, 0.027321657), (1.3575, 0.58, 0.027321657), (1.365, 0.16, 0.024732884), (1.365, 0.58, 0.024732884), (1.3725, 0.16, 0.022240777), (1.3725, 0.58, 0.022240777), (1.38, 0.16, 0.019852163), (1.38, 0.58, 0.019852163), (1.3875, 0.16, 0.017573593), (1.3875, 0.58, 0.017573593), (1.395, 0.16, 0.015411311), (1.395, 0.58, 0.015411311), (1.4025, 0.16, 0.013371242), (1.4025, 0.58, 0.013371242), (1.41, 0.16, 0.01145898), (1.41, 0.58, 0.01145898), (1.4175, 0.16, 0.009679766), (1.4175, 0.58, 0.009679766), (1.425, 0.16, 0.008038476), (1.425, 0.58, 0.008038476), (1.4325, 0.16, 0.0065396084), (1.4325, 0.58, 0.0065396084), (1.44, 0.16, 0.0051872726), (1.44, 0.58, 0.0051872726), (1.4475, 0.16, 0.0039851745), (1.4475, 0.58, 0.0039851745), (1.455, 0.16, 0.002936609), (1.455, 0.58, 0.002936609), (1.4625, 0.16, 0.0020444505), (1.4625, 0.58, 0.0020444505), (1.47, 0.16, 0.001311144), (1.47, 0.58, 0.001311144), (1.4775, 0.16, 0.0007386996), (1.4775, 0.58, 0.0007386996), (1.485, 0.16, 0.0003286863), (1.485, 0.58, 0.0003286863), (1.4925, 0.16, 0.00008222792), (1.4925, 0.58, 0.00008222792), (1.5, 0.16, 1.7997118e-33), (1.5, 0.58, 1.7997118e-33), (1.5075, 0.16, 0.00008222792), (1.5075, 0.58, 0.00008222792), (1.515, 0.16, 0.0003286863), (1.515, 0.58, 0.0003286863), (1.5225, 0.16, 0.0007386996), (1.5225, 0.58, 0.0007386996), (1.53, 0.16, 0.001311144), (1.53, 0.58, 0.001311144), (1.5375, 0.16, 0.0020444505), (1.5375, 0.58, 0.0020444505), (1.545, 0.16, 0.002936609), (1.545, 0.58, 0.002936609), (1.5525, 0.16, 0.0039851745), (1.5525, 0.58, 0.0039851745), (1.56, 0.16, 0.0051872726), (1.56, 0.58, 0.0051872726), (1.5675, 0.16, 0.0065396084), (1.5675, 0.58, 0.0065396084), (1.575, 0.16, 0.008038476), (1.575, 0.58, 0.008038476), (1.5825, 0.16, 0.009679766), (1.5825, 0.58, 0.009679766), (1.59, 0.16, 0.01145898), (1.59, 0.58, 0.01145898), (1.5975, 0.16, 0.013371242), (1.5975, 0.58, 0.013371242), (1.605, 0.16, 0.015411311), (1.605, 0.58, 0.015411311), (1.6125, 0.16, 0.017573593), (1.6125, 0.58, 0.017573593), (1.62, 0.16, 0.019852163), (1.62, 0.58, 0.019852163), (1.6275, 0.16, 0.022240777), (1.6275, 0.58, 0.022240777), (1.635, 0.16, 0.024732884), (1.635, 0.58, 0.024732884), (1.6425, 0.16, 0.027321657), (1.6425, 0.58, 0.027321657), (1.65, 0.16, 0.03), (1.65, 0.58, 0.03), (1.6575, 0.16, 0.03276057), (1.6575, 0.58, 0.03276057), (1.665, 0.16, 0.0355958), (1.665, 0.58, 0.0355958), (1.6725, 0.16, 0.038497925), (1.6725, 0.58, 0.038497925), (1.68, 0.16, 0.04145898), (1.68, 0.58, 0.04145898), (1.6875, 0.16, 0.044470858), (1.6875, 0.58, 0.044470858), (1.695, 0.16, 0.047525298), (1.695, 0.58, 0.047525298), (1.7025, 0.16, 0.050613932), (1.7025, 0.58, 0.050613932), (1.71, 0.16, 0.053728294), (1.71, 0.58, 0.053728294), (1.7175, 0.16, 0.056859843), (1.7175, 0.58, 0.056859843), (1.725, 0.16, 0.06), (1.725, 0.58, 0.06), (1.7325, 0.16, 0.063140154), (1.7325, 0.58, 0.063140154), (1.74, 0.16, 0.06627171), (1.74, 0.58, 0.06627171), (1.7475, 0.16, 0.069386065), (1.7475, 0.58, 0.069386065), (1.755, 0.16, 0.0724747), (1.755, 0.58, 0.0724747), (1.7625, 0.16, 0.07552914), (1.7625, 0.58, 0.07552914), (1.77, 0.16, 0.07854102), (1.77, 0.58, 0.07854102), (1.7775, 0.16, 0.08150208), (1.7775, 0.58, 0.08150208), (1.785, 0.16, 0.0844042), (1.785, 0.58, 0.0844042), (1.7925, 0.16, 0.08723943), (1.7925, 0.58, 0.08723943), (1.8, 0.16, 0.09), (1.8, 0.58, 0.09), (1.8075, 0.16, 0.092678346), (1.8075, 0.58, 0.092678346), (1.815, 0.16, 0.09526712), (1.815, 0.58, 0.09526712), (1.8225, 0.16, 0.097759224), (1.8225, 0.58, 0.097759224), (1.83, 0.16, 0.100147836), (1.83, 0.58, 0.100147836), (1.8375, 0.16, 0.10242641), (1.8375, 0.58, 0.10242641), (1.845, 0.16, 0.10458869), (1.845, 0.58, 0.10458869), (1.8525, 0.16, 0.10662876), (1.8525, 0.58, 0.10662876), (1.86, 0.16, 0.10854102), (1.86, 0.58, 0.10854102), (1.8675, 0.16, 0.11032023), (1.8675, 0.58, 0.11032023), (1.875, 0.16, 0.11196152), (1.875, 0.58, 0.11196152), (1.8825, 0.16, 0.11346039), (1.8825, 0.58, 0.11346039), (1.89, 0.16, 0.114812724), (1.89, 0.58, 0.114812724), (1.8975, 0.16, 0.11601482), (1.8975, 0.58, 0.11601482), (1.905, 0.16, 0.11706339), (1.905, 0.58, 0.11706339), (1.9125, 0.16, 0.11795555), (1.9125, 0.58, 0.11795555), (1.92, 0.16, 0.11868886), (1.92, 0.58, 0.11868886), (1.9275, 0.16, 0.1192613), (1.9275, 0.58, 0.1192613), (1.935, 0.16, 0.119671315), (1.935, 0.58, 0.119671315), (1.9425, 0.16, 0.11991777), (1.9425, 0.58, 0.11991777), (1.95, 0.16, 0.12), (1.95, 0.58, 0.12), (1.9575, 0.16, 0.11991777), (1.9575, 0.58, 0.11991777), (1.965, 0.16, 0.119671315), (1.965, 0.58, 0.119671315), (1.9725, 0.16, 0.1192613), (1.9725, 0.58, 0.1192613), (1.98, 0.16, 0.11868886), (1.98, 0.58, 0.11868886), (1.9875, 0.16, 0.11795555), (1.9875, 0.58, 0.11795555), (1.995, 0.16, 0.11706339), (1.995, 0.58, 0.11706339), (2.0025, 0.16, 0.11601482), (2.0025, 0.58, 0.11601482), (2.01, 0.16, 0.114812724), (2.01, 0.58, 0.114812724), (2.0175, 0.16, 0.11346039), (2.0175, 0.58, 0.11346039), (2.025, 0.16, 0.11196152), (2.025, 0.58, 0.11196152), (2.0325, 0.16, 0.11032023), (2.0325, 0.58, 0.11032023), (2.04, 0.16, 0.10854102), (2.04, 0.58, 0.10854102), (2.0475, 0.16, 0.10662876), (2.0475, 0.58, 0.10662876), (2.055, 0.16, 0.104536034), (2.055, 0.58, 0.104536034), (2.0625, 0.16, 0.10210439), (2.0625, 0.58, 0.10210439), (2.07, 0.16, 0.09934313), (2.07, 0.58, 0.09934313), (2.0775, 0.16, 0.09627766), (2.0775, 0.58, 0.09627766), (2.085, 0.16, 0.09293576), (2.085, 0.58, 0.09293576), (2.0925, 0.16, 0.08934725), (2.0925, 0.58, 0.08934725), (2.1, 0.16, 0.0855436), (2.1, 0.58, 0.0855436), (2.1075, 0.16, 0.08155757), (2.1075, 0.58, 0.08155757), (2.115, 0.16, 0.07742284), (2.115, 0.58, 0.07742284), (2.1225, 0.16, 0.07317357), (2.1225, 0.58, 0.07317357), (2.13, 0.16, 0.06884401), (2.13, 0.58, 0.06884401), (2.1375, 0.16, 0.06446815), (2.1375, 0.58, 0.06446815), (2.145, 0.16, 0.060079306), (2.145, 0.58, 0.060079306), (2.1525, 0.16, 0.055709727), (2.1525, 0.58, 0.055709727), (2.16, 0.16, 0.051390294), (2.16, 0.58, 0.051390294), (2.1675, 0.16, 0.047150172), (2.1675, 0.58, 0.047150172), (2.175, 0.16, 0.043016512), (2.175, 0.58, 0.043016512), (2.1825, 0.16, 0.0390142), (2.1825, 0.58, 0.0390142), (2.19, 0.16, 0.035165623), (2.19, 0.58, 0.035165623), (2.1975, 0.16, 0.03149048), (2.1975, 0.58, 0.03149048), (2.205, 0.16, 0.028005634), (2.205, 0.58, 0.028005634), (2.2125, 0.16, 0.024725007), (2.2125, 0.58, 0.024725007), (2.22, 0.16, 0.021659516), (2.22, 0.58, 0.021659516), (2.2275, 0.16, 0.018817052), (2.2275, 0.58, 0.018817052), (2.235, 0.16, 0.01620251), (2.235, 0.58, 0.01620251), (2.2425, 0.16, 0.013817844), (2.2425, 0.58, 0.013817844), (2.25, 0.16, 0.011662186), (2.25, 0.58, 0.011662186), (2.2575, 0.16, 0.009731984), (2.2575, 0.58, 0.009731984), (2.265, 0.16, 0.008021186), (2.265, 0.58, 0.008021186), (2.2725, 0.16, 0.0065214573), (2.2725, 0.58, 0.0065214573), (2.28, 0.16, 0.0052224225), (2.28, 0.58, 0.0052224225), (2.2875, 0.16, 0.004111939), (2.2875, 0.58, 0.004111939), (2.295, 0.16, 0.0031763848), (2.295, 0.58, 0.0031763848), (2.3025, 0.16, 0.0024009696), (2.3025, 0.58, 0.0024009696), (2.31, 0.16, 0.0017700535), (2.31, 0.58, 0.0017700535), (2.3175, 0.16, 0.0012674734), (2.3175, 0.58, 0.0012674734), (2.325, 0.16, 0.00087687117), (2.325, 0.58, 0.00087687117), (2.3325, 0.16, 0.0005820184), (2.3325, 0.58, 0.0005820184), (2.34, 0.16, 0.00036713234), (2.34, 0.58, 0.00036713234), (2.3475, 0.16, 0.00021717901), (2.3475, 0.58, 0.00021717901), (2.355, 0.16, 0.00011815773), (2.355, 0.58, 0.00011815773), (2.3625, 0.16, 0.000057363875), (2.3625, 0.58, 0.000057363875), (2.37, 0.16, 0.000023624938), (2.37, 0.58, 0.000023624938), (2.3775, 0.16, 0.000007506887), (2.3775, 0.58, 0.000007506887), (2.385, 0.16, 0.0000014873445), (2.385, 0.58, 0.0000014873445), (2.3925, 0.16, 9.312825e-8), (2.3925, 0.58, 9.312825e-8), (2.4, 0.16, 0), (2.4, 0.58, 0)]
        color3f[] primvars:displayColor = [(0.22, 0.5, 0.7)]
        uniform token subdivisionScheme = "none"
    }

    def Mesh "RightTrack" (
        prepend apiSchemas = ["PhysicsCollisionAPI", "PhysicsMeshCollisionAPI", "MaterialBindingAPI"]
    )
    {
        uniform bool doubleSided = 1
        int[] faceVertexCounts = [3, 3, 3, 3, 3, 3, 3, 3, 3, 3, 3, 3, 3, 3, 3, 3, 3, 3, 3, 3, 3, 3, 3, 3, 3, 3, 3, 3, 3, 3, 3, 3, 3, 3, 3, 3, 3, 3, 3, 3, 3, 3, 3, 3, 3, 3, 3, 3, 3, 3, 3, 3, 3, 3, 3, 3, 3, 3, 3, 3, 3, 3, 3, 3, 3, 3, 3, 3, 3, 3, 3, 3, 3, 3, 3, 3, 3, 3, 3, 3, 3, 3, 3, 3, 3, 3, 3, 3, 3, 3, 3, 3, 3, 3, 3, 3, 3, 3, 3, 3, 3, 3, 3, 3, 3, 3, 3, 3, 3, 3, 3, 3, 3, 3, 3, 3, 3, 3, 3, 3, 3, 3, 3, 3, 3, 3, 3, 3, 3, 3, 3, 3, 3, 3, 3, 3, 3, 3, 3, 3, 3, 3, 3, 3, 3, 3, 3, 3, 3, 3, 3, 3, 3, 3, 3, 3, 3, 3, 3, 3, 3, 3, 3, 3, 3, 3, 3, 3, 3, 3, 3, 3, 3, 3, 3, 3, 3, 3, 3, 3, 3, 3, 3, 3, 3, 3, 3, 3, 3, 3, 3, 3, 3, 3, 3, 3, 3, 3, 3, 3, 3, 3, 3, 3, 3, 3, 3, 3, 3, 3, 3, 3, 3, 3, 3, 3, 3, 3, 3, 3, 3, 3, 3, 3, 3, 3, 3, 3, 3, 3, 3, 3, 3, 3, 3, 3, 3, 3, 3, 3, 3, 3, 3, 3, 3, 3, 3, 3, 3, 3, 3, 3, 3, 3, 3, 3, 3, 3, 3, 3, 3, 3, 3, 3, 3, 3, 3, 3, 3, 3, 3, 3, 3, 3, 3, 3, 3, 3, 3, 3, 3, 3, 3, 3, 3, 3, 3, 3, 3, 3, 3, 3, 3, 3, 3, 3, 3, 3, 3, 3, 3, 3, 3, 3, 3, 3, 3, 3, 3, 3, 3, 3, 3, 3, 3, 3, 3, 3, 3, 3, 3, 3, 3, 3, 3, 3, 3, 3, 3, 3, 3, 3, 3, 3, 3, 3, 3, 3, 3, 3, 3, 3, 3, 3, 3, 3, 3, 3, 3, 3, 3, 3, 3, 3, 3, 3, 3, 3, 3, 3, 3, 3, 3, 3, 3, 3, 3, 3, 3, 3, 3, 3, 3, 3, 3, 3, 3, 3, 3, 3, 3, 3, 3, 3, 3, 3, 3, 3, 3, 3, 3, 3, 3, 3, 3, 3, 3, 3, 3, 3, 3, 3, 3, 3, 3, 3, 3, 3, 3, 3, 3, 3, 3, 3, 3, 3, 3, 3, 3, 3, 3, 3, 3, 3, 3, 3, 3, 3, 3, 3, 3, 3, 3, 3, 3, 3, 3, 3, 3, 3, 3, 3, 3, 3, 3, 3, 3, 3, 3, 3, 3, 3, 3, 3, 3, 3, 3, 3, 3, 3, 3, 3, 3, 3, 3, 3, 3, 3, 3, 3, 3, 3, 3, 3, 3, 3, 3, 3, 3, 3]
        int[] faceVertexIndices = [0, 2, 3, 0, 3, 1, 2, 4, 5, 2, 5, 3, 4, 6, 7, 4, 7, 5, 6, 8, 9, 6, 9, 7, 8, 10, 11, 8, 11, 9, 10, 12, 13, 10, 13, 11, 12, 14, 15, 12, 15, 13, 14, 16, 17, 14, 17, 15, 16, 18, 19, 16, 19, 17, 18, 20, 21, 18, 21, 19, 20, 22, 23, 20, 23, 21, 22, 24, 25, 22, 25, 23, 24, 26, 27, 24, 27, 25, 26, 28, 29, 26, 29, 27, 28, 30, 31, 28, 31, 29, 30, 32, 33, 30, 33, 31, 32, 34, 35, 32, 35, 33, 34, 36, 37, 34, 37, 35, 36, 38, 39, 36, 39, 37, 38, 40, 41, 38, 41, 39, 40, 42, 43, 40, 43, 41, 42, 44, 45, 42, 45, 43, 44, 46, 47, 44, 47, 45, 46, 48, 49, 46, 49, 47, 48, 50, 51, 48, 51, 49, 50, 52, 53, 50, 53, 51, 52, 54, 55, 52, 55, 53, 54, 56, 57, 54, 57, 55, 56, 58, 59, 56, 59, 57, 58, 60, 61, 58, 61, 59, 60, 62, 63, 60, 63, 61, 62, 64, 65, 62, 65, 63, 64, 66, 67, 64, 67, 65, 66, 68, 69, 66, 69, 67, 68, 70, 71, 68, 71, 69, 70, 72, 73, 70, 73, 71, 72, 74, 75, 72, 75, 73, 74, 76, 77, 74, 77, 75, 76, 78, 79, 76, 79, 77, 78, 80, 81, 78, 81, 79, 80, 82, 83, 80, 83, 81, 82, 84, 85, 82, 85, 83, 84, 86, 87, 84, 87, 85, 86, 88, 89, 86, 89, 87, 88, 90, 91, 88, 91, 89, 90, 92, 93, 90, 93, 91, 92, 94, 95, 92, 95, 93, 94, 96, 97, 94, 97, 95, 96, 98, 99, 96, 99, 97, 98, 100, 101, 98, 101, 99, 100, 102, 103, 100, 103, 101, 102, 104, 105, 102, 105, 103, 104, 106, 107, 104, 107, 105, 106, 108, 109, 106, 109, 107, 108, 110, 111, 108, 111, 109, 110, 112, 113, 110, 113, 111, 112, 114, 115, 112, 115, 113, 114, 116, 117, 114, 117, 115, 116, 118, 119, 116, 119, 117, 118, 120, 121, 118, 121, 119, 120, 122, 123, 120, 123, 121, 122, 124, 125, 122, 125, 123, 124, 126, 127, 124, 127, 125, 126, 128, 129, 126, 129, 127, 128, 130, 131, 128, 131, 129, 130, 132, 133, 130, 133, 131, 132, 134, 135, 132, 135, 133, 134, 136, 137, 134, 137, 135, 136, 138, 139, 136, 139, 137, 138, 140, 141, 138, 141, 139, 140, 142, 143, 140, 143, 141, 142, 144, 145, 142, 145, 143, 144, 146, 147, 144, 147, 145, 146, 148, 149, 146, 149, 147, 148, 150, 151, 148, 151, 149, 150, 152, 153, 150, 153, 151, 152, 154, 155, 152, 155, 153, 154, 156, 157, 154, 157, 155, 156, 158, 159, 156, 159, 157, 158, 160, 161, 158, 161, 159, 160, 162, 163, 160, 163, 161, 162, 164, 165, 162, 165, 163, 164, 166, 167, 164, 167, 165, 166, 168, 169, 166, 169, 167, 168, 170, 171, 168, 171, 169, 170, 172, 173, 170, 173, 171, 172, 174, 175, 172, 175, 173, 174, 176, 177, 174, 177, 175, 176, 178, 179, 176, 179, 177, 178, 180, 181, 178, 181, 179, 180, 182, 183, 180, 183, 181, 182, 184, 185, 182, 185, 183, 184, 186, 187, 184, 187, 185, 186, 188, 189, 186, 189, 187, 188, 190, 191, 188, 191, 189, 190, 192, 193, 190, 193, 191, 192, 194, 195, 192, 195, 193, 194, 196, 197, 194, 197, 195, 196, 198, 199, 196, 199, 197, 198, 200, 201, 198, 201, 199, 200, 202, 203, 200, 203, 201, 202, 204, 205, 202, 205, 203, 204, 206, 207, 204, 207, 205, 206, 208, 209, 206, 209, 207, 208, 210, 211, 208, 211, 209, 210, 212, 213, 210, 213, 211, 212, 214, 215, 212, 215, 213, 214, 216, 217, 214, 217, 215, 216, 218, 219, 216, 219, 217, 218, 220, 221, 218, 221, 219, 220, 222, 223, 220, 223, 221, 222, 224, 225, 222, 225, 223, 224, 226, 227, 224, 227, 225, 226, 228, 229, 226, 229, 227, 228, 230, 231, 228, 231, 229, 230, 232, 233, 230, 233, 231, 232, 234, 235, 232, 235, 233, 234, 236, 237, 234, 237, 235, 236, 238, 239, 236, 239, 237, 238, 240, 241, 238, 241, 239, 240, 242, 243, 240, 243, 241, 242, 244, 245, 242, 245, 243, 244, 246, 247, 244, 247, 245, 246, 248, 249, 246, 249, 247, 248, 250, 251, 248, 251, 249, 250, 252, 253, 250, 253, 251, 252, 254, 255, 252, 255, 253, 254, 256, 257, 254, 257, 255, 256, 258, 259, 256, 259, 257, 258, 260, 261, 258, 261, 259, 260, 262, 263, 260, 263, 261, 262, 264, 265, 262, 265, 263, 264, 266, 267, 264, 267, 265, 266, 268, 269, 266, 269, 267, 268, 270, 271, 268, 271, 269, 270, 272, 273, 270, 273, 271, 272, 274, 275, 272, 275, 273, 274, 276, 277, 274, 277, 275, 276, 278, 279, 276, 279, 277, 278, 280, 281, 278, 281, 279, 280, 282, 283, 280, 283, 281, 282, 284, 285, 282, 285, 283, 284, 286, 287, 284, 287, 285, 286, 288, 289, 286, 289, 287, 288, 290, 291, 288, 291, 289, 290, 292, 293, 290, 293, 291, 292, 294, 295, 292, 295, 293, 294, 296, 297, 294, 297, 295, 296, 298, 299, 296, 299, 297, 298, 300, 301, 298, 301, 299, 300, 302, 303, 300, 303, 301, 302, 304, 305, 302, 305, 303, 304, 306, 307, 304, 307, 305, 306, 308, 309, 306, 309, 307, 308, 310, 311, 308, 311, 309, 310, 312, 313, 310, 313, 311, 312, 314, 315, 312, 315, 313, 314, 316, 317, 314, 317, 315, 316, 318, 319, 316, 319, 317, 318, 320, 321, 318, 321, 319, 320, 322, 323, 320, 323, 321, 322, 324, 325, 322, 325, 323, 324, 326, 327, 324, 327, 325, 326, 328, 329, 326, 329, 327, 328, 330, 331, 328, 331, 329, 330, 332, 333, 330, 333, 331, 332, 334, 335, 332, 335, 333, 334, 336, 337, 334, 337, 335, 336, 338, 339, 336, 339, 337, 338, 340, 341, 338, 341, 339, 340, 342, 343, 340, 343, 341, 342, 344, 345, 342, 345, 343, 344, 346, 347, 344, 347, 345, 346, 348, 349, 346, 349, 347, 348, 350, 351, 348, 351, 349, 350, 352, 353, 350, 353, 351, 352, 354, 355, 352, 355, 353, 354, 356, 357, 354, 357, 355, 356, 358, 359, 356, 359, 357, 358, 360, 361, 358, 361, 359, 360, 362, 363, 360, 363, 361, 362, 364, 365, 362, 365, 363, 364, 366, 367, 364, 367, 365, 366, 368, 369, 366, 369, 367, 368, 370, 371, 368, 371, 369, 370, 372, 373, 370, 373, 371, 372, 374, 375, 372, 375, 373, 374, 376, 377, 374, 377, 375, 376, 378, 379, 376, 379, 377, 378, 380, 381, 378, 381, 379, 380, 382, 383, 380, 383, 381, 382, 384, 385, 382, 385, 383, 384, 386, 387, 384, 387, 385, 386, 388, 389, 386, 389, 387, 388, 390, 391, 388, 391, 389, 390, 392, 393, 390, 393, 391, 392, 394, 395, 392, 395, 393, 394, 396, 397, 394, 397, 395, 396, 398, 399, 396, 399, 397, 398, 400, 401, 398, 401, 399, 400, 402, 403, 400, 403, 401, 402, 404, 405, 402, 405, 403, 404, 406, 407, 404, 407, 405, 406, 408, 409, 406, 409, 407, 408, 410, 411, 408, 411, 409, 410, 412, 413, 410, 413, 411, 412, 414, 415, 412, 415, 413, 414, 416, 417, 414, 417, 415, 416, 418, 419, 416, 419, 417, 418, 420, 421, 418, 421, 419, 420, 422, 423, 420, 423, 421, 422, 424, 425, 422, 425, 423, 424, 426, 427, 424, 427, 425, 426, 428, 429, 426, 429, 427, 428, 430, 431, 428, 431, 429, 430, 432, 433, 430, 433, 431, 432, 434, 435, 432, 435, 433, 434, 436, 437, 434, 437, 435, 436, 438, 439, 436, 439, 437, 438, 440, 441, 438, 441, 439, 440, 442, 443, 440, 443, 441, 442, 444, 445, 442, 445, 443, 444, 446, 447, 444, 447, 445, 446, 448, 449, 446, 449, 447, 448, 450, 451, 448, 451, 449, 450, 452, 453, 450, 453, 451, 452, 454, 455, 452, 455, 453, 454, 456, 457, 454, 457, 455, 456, 458, 459, 456, 459, 457, 458, 460, 461, 458, 461, 459, 460, 462, 463, 460, 463, 461, 462, 464, 465, 462, 465, 463, 464, 466, 467, 464, 467, 465, 466, 468, 469, 466, 469, 467, 468, 470, 471, 468, 471, 469, 470, 472, 473, 470, 473, 471, 472, 474, 475, 472, 475, 473, 474, 476, 477, 474, 477, 475, 476, 478, 479, 476, 479, 477, 478, 480, 481, 478, 481, 479]
        rel material:binding:physics = </Environment/GroundMaterial>
        uniform token physics:approximation = "none"
        point3f[] points = [(0.6, -0.58, 0), (0.6, -0.16, 0), (0.6075, -0.58, 0.00013581436), (0.6075, -0.16, 0.00013581436), (0.615, -0.58, 0.00054152694), (0.615, -0.16, 0.00054152694), (0.6225, -0.58, 0.0012119692), (0.6225, -0.16, 0.0012119692), (0.63, -0.58, 0.0021386035), (0.63, -0.16, 0.0021386035), (0.6375, -0.58, 0.0033096364), (0.6375, -0.16, 0.0033096364), (0.645, -0.58, 0.004710176), (0.645, -0.16, 0.004710176), (0.6525, -0.58, 0.0063224295), (0.6525, -0.16, 0.0063224295), (0.66, -0.58, 0.00812594), (0.66, -0.16, 0.00812594), (0.6675, -0.58, 0.010097857), (0.6675, -0.16, 0.010097857), (0.675, -0.58, 0.012213239), (0.675, -0.16, 0.012213239), (0.6825, -0.58, 0.014445387), (0.6825, -0.16, 0.014445387), (0.69, -0.58, 0.016766187), (0.69, -0.16, 0.016766187), (0.6975, -0.58, 0.019146493), (0.6975, -0.16, 0.019146493), (0.705, -0.58, 0.0215565), (0.705, -0.16, 0.0215565), (0.7125, -0.58, 0.023966137), (0.7125, -0.16, 0.023966137), (0.72, -0.58, 0.026345458), (0.72, -0.16, 0.026345458), (0.7275, -0.58, 0.028665032), (0.7275, -0.16, 0.028665032), (0.735, -0.58, 0.030896325), (0.735, -0.16, 0.030896325), (0.7425, -0.58, 0.033012055), (0.7425, -0.16, 0.033012055), (0.75, -0.58, 0.03498656), (0.75, -0.16, 0.03498656), (0.7575, -0.58, 0.03679609), (0.7575, -0.16, 0.03679609), (0.765, -0.58, 0.03841913), (0.765, -0.16, 0.03841913), (0.7725, -0.58, 0.039836664), (0.7725, -0.16, 0.039836664), (0.78, -0.58, 0.041032374), (0.78, -0.16, 0.041032374), (0.7875, -0.58, 0.04199286), (0.7875, -0.16, 0.04199286), (0.795, -0.58, 0.04270778), (0.795, -0.16, 0.04270778), (0.8025, -0.58, 0.043169945), (0.8025, -0.16, 0.043169945), (0.81, -0.58, 0.043375395), (0.81, -0.16, 0.043375395), (0.8175, -0.58, 0.04332342), (0.8175, -0.16, 0.04332342), (0.825, -0.58, 0.043016512), (0.825, -0.16, 0.043016512), (0.8325, -0.58, 0.042460322), (0.8325, -0.16, 0.042460322), (0.84, -0.58, 0.041663524), (0.84, -0.16, 0.041663524), (0.8475, -0.58, 0.040637676), (0.8475, -0.16, 0.040637676), (0.855, -0.58, 0.039397016), (0.855, -0.16, 0.039397016), (0.8625, -0.58, 0.03795825), (0.8625, -0.16, 0.03795825), (0.87, -0.58, 0.036340278), (0.87, -0.16, 0.036340278), (0.8775, -0.58, 0.034563906), (0.8775, -0.16, 0.034563906), (0.885, -0.58, 0.03265155), (0.885, -0.16, 0.03265155), (0.8925, -0.58, 0.030626893), (0.8925, -0.16, 0.030626893), (0.9, -0.58, 0.028514532), (0.9, -0.16, 0.028514532), (0.9075, -0.58, 0.026339648), (0.9075, -0.16, 0.026339648), (0.915, -0.58, 0.024127629), (0.915, -0.16, 0.024127629), (0.9225, -0.58, 0.021903712), (0.9225, -0.16, 0.021903712), (0.93, -0.58, 0.019692648), (0.93, -0.16, 0.019692648), (0.9375, -0.58, 0.017518343), (0.9375, -0.16, 0.017518343), (0.945, -0.58, 0.015403551), (0.945, -0.16, 0.015403551), (0.9525, -0.58, 0.013371242), (0.9525, -0.16, 0.013371242), (0.96, -0.58, 0.01145898), (0.96, -0.16, 0.01145898), (0.9675, -0.58, 0.009679766), (0.9675, -0.16, 0.009679766), (0.975, -0.58, 0.008038476), (0.975, -0.16, 0.008038476), (0.9825, -0.58, 0.0065396084), (0.9825, -0.16, 0.0065396084), (0.99, -0.58, 0.0051872726), (0.99, -0.16, 0.0051872726), (0.9975, -0.58, 0.0039851745), (0.9975, -0.16, 0.0039851745), (1.005, -0.58, 0.002936609), (1.005, -0.16, 0.002936609), (1.0125, -0.58, 0.0020444505), (1.0125, -0.16, 0.0020444505), (1.02, -0.58, 0.001311144), (1.02, -0.16, 0.001311144), (1.0275, -0.58, 0.0007386996), (1.0275, -0.16, 0.0007386996), (1.035, -0.58, 0.0003286863), (1.035, -0.16, 0.0003286863), (1.0425, -0.58, 0.00008222792), (1.0425, -0.16, 0.00008222792), (1.05, -0.58, 3.8517996e-32), (1.05, -0.16, 3.8517996e-32), (1.0575, -0.58, 0.00008222792), (1.0575, -0.16, 0.00008222792), (1.065, -0.58, 0.0003286863), (1.065, -0.16, 0.0003286863), (1.0725, -0.58, 0.0007386996), (1.0725, -0.16, 0.0007386996), (1.08, -0.58, 0.001311144), (1.08, -0.16, 0.001311144), (1.0875, -0.58, 0.0020444505), (1.0875, -0.16, 0.0020444505), (1.095, -0.58, 0.002936609), (1.095, -0.16, 0.002936609), (1.1025, -0.58, 0.0039851745), (1.1025, -0.16, 0.0039851745), (1.11, -0.58, 0.0051872726), (1.11, -0.16, 0.0051872726), (1.1175, -0.58, 0.0065396084), (1.1175, -0.16, 0.0065396084), (1.125, -0.58, 0.008038476), (1.125, -0.16, 0.008038476), (1.1325, -0.58, 0.009679766), (1.1325, -0.16, 0.009679766), (1.14, -0.58, 0.01145898), (1.14, -0.16, 0.01145898), (1.1475, -0.58, 0.013371242), (1.1475, -0.16, 0.013371242), (1.155, -0.58, 0.015411311), (1.155, -0.16, 0.015411311), (1.1625, -0.58, 0.017573593), (1.1625, -0.16, 0.017573593), (1.17, -0.58, 0.019852163), (1.17, -0.16, 0.019852163), (1.1775, -0.58, 0.022240777), (1.1775, -0.16, 0.022240777), (1.185, -0.58, 0.024732884), (1.185, -0.16, 0.024732884), (1.1925, -0.58, 0.027321657), (1.1925, -0.16, 0.027321657), (1.2, -0.58, 0.03), (1.2, -0.16, 0.03), (1.2075, -0.58, 0.03276057), (1.2075, -0.16, 0.03276057), (1.215, -0.58, 0.0355958), (1.215, -0.16, 0.0355958), (1.2225, -0.58, 0.038497925), (1.2225, -0.16, 0.038497925), (1.23, -0.58, 0.04145898), (1.23, -0.16, 0.04145898), (1.2375, -0.58, 0.044470858), (1.2375, -0.16, 0.044470858), (1.245, -0.58, 0.047525298), (1.245, -0.16, 0.047525298), (1.2525, -0.58, 0.050613932), (1.2525, -0.16, 0.050613932), (1.26, -0.58, 0.053728294), (1.26, -0.16, 0.053728294), (1.2675, -0.58, 0.056859843), (1.2675, -0.16, 0.056859843), (1.275, -0.58, 0.06), (1.275, -0.16, 0.06), (1.2825, -0.58, 0.063140154), (1.2825, -0.16, 0.063140154), (1.29, -0.58, 0.06627171), (1.29, -0.16, 0.06627171), (1.2975, -0.58, 0.069386065), (1.2975, -0.16, 0.069386065), (1.305, -0.58, 0.0724747), (1.305, -0.16, 0.0724747), (1.3125, -0.58, 0.07552914), (1.3125, -0.16, 0.07552914), (1.32, -0.58, 0.07854102), (1.32, -0.16, 0.07854102), (1.3275, -0.58, 0.08150208), (1.3275, -0.16, 0.08150208), (1.335, -0.58, 0.0844042), (1.335, -0.16, 0.0844042), (1.3425, -0.58, 0.08723943), (1.3425, -0.16, 0.08723943), (1.35, -0.58, 0.09), (1.35, -0.16, 0.09), (1.3575, -0.58, 0.092678346), (1.3575, -0.16, 0.092678346), (1.365, -0.58, 0.09526712), (1.365, -0.16, 0.09526712), (1.3725, -0.58, 0.097759224), (1.3725, -0.16, 0.097759224), (1.38, -0.58, 0.100147836), (1.38, -0.16, 0.100147836), (1.3875, -0.58, 0.10242641), (1.3875, -0.16, 0.10242641), (1.395, -0.58, 0.10458869), (1.395, -0.16, 0.10458869), (1.4025, -0.58, 0.10662876), (1.4025, -0.16, 0.10662876), (1.41, -0.58, 0.10854102), (1.41, -0.16, 0.10854102), (1.4175, -0.58, 0.11032023), (1.4175, -0.16, 0.11032023), (1.425, -0.58, 0.11196152), (1.425, -0.16, 0.11196152), (1.4325, -0.58, 0.11346039), (1.4325, -0.16, 0.11346039), (1.44, -0.58, 0.114812724), (1.44, -0.16, 0.114812724), (1.4475, -0.58, 0.11601482), (1.4475, -0.16, 0.11601482), (1.455, -0.58, 0.11706339), (1.455, -0.16, 0.11706339), (1.4625, -0.58, 0.11795555), (1.4625, -0.16, 0.11795555), (1.47, -0.58, 0.11868886), (1.47, -0.16, 0.11868886), (1.4775, -0.58, 0.1192613), (1.4775, -0.16, 0.1192613), (1.485, -0.58, 0.119671315), (1.485, -0.16, 0.119671315), (1.4925, -0.58, 0.11991777), (1.4925, -0.16, 0.11991777), (1.5, -0.58, 0.12), (1.5, -0.16, 0.12), (1.5075, -0.58, 0.11991777), (1.5075, -0.16, 0.11991777), (1.515, -0.58, 0.119671315), (1.515, -0.16, 0.119671315), (1.5225, -0.58, 0.1192613), (1.5225, -0.16, 0.1192613), (1.53, -0.58, 0.11868886), (1.53, -0.16, 0.11868886), (1.5375, -0.58, 0.11795555), (1.5375, -0.16, 0.11795555), (1.545, -0.58, 0.11706339), (1.545, -0.16, 0.11706339), (1.5525, -0.58, 0.11601482), (1.5525, -0.16, 0.11601482), (1.56, -0.58, 0.114812724), (1.56, -0.16, 0.114812724), (1.5675, -0.58, 0.11346039), (1.5675, -0.16, 0.11346039), (1.575, -0.58, 0.11196152), (1.575, -0.16, 0.11196152), (1.5825, -0.58, 0.11032023), (1.5825, -0.16, 0.11032023), (1.59, -0.58, 0.10854102), (1.59, -0.16, 0.10854102), (1.5975, -0.58, 0.10662876), (1.5975, -0.16, 0.10662876), (1.605, -0.58, 0.10458869), (1.605, -0.16, 0.10458869), (1.6125, -0.58, 0.10242641), (1.6125, -0.16, 0.10242641), (1.62, -0.58, 0.100147836), (1.62, -0.16, 0.100147836), (1.6275, -0.58, 0.097759224), (1.6275, -0.16, 0.097759224), (1.635, -0.58, 0.09526712), (1.635, -0.16, 0.09526712), (1.6425, -0.58, 0.092678346), (1.6425, -0.16, 0.092678346), (1.65, -0.58, 0.09), (1.65, -0.16, 0.09), (1.6575, -0.58, 0.08723943), (1.6575, -0.16, 0.08723943), (1.665, -0.58, 0.0844042), (1.665, -0.16, 0.0844042), (1.6725, -0.58, 0.08150208), (1.6725, -0.16, 0.08150208), (1.68, -0.58, 0.07854102), (1.68, -0.16, 0.07854102), (1.6875, -0.58, 0.07552914), (1.6875, -0.16, 0.07552914), (1.695, -0.58, 0.0724747), (1.695, -0.16, 0.0724747), (1.7025, -0.58, 0.069386065), (1.7025, -0.16, 0.069386065), (1.71, -0.58, 0.06627171), (1.71, -0.16, 0.06627171), (1.7175, -0.58, 0.063140154), (1.7175, -0.16, 0.063140154), (1.725, -0.58, 0.06), (1.725, -0.16, 0.06), (1.7325, -0.58, 0.056859843), (1.7325, -0.16, 0.056859843), (1.74, -0.58, 0.053728294), (1.74, -0.16, 0.053728294), (1.7475, -0.58, 0.050613932), (1.7475, -0.16, 0.050613932), (1.755, -0.58, 0.047525298), (1.755, -0.16, 0.047525298), (1.7625, -0.58, 0.044470858), (1.7625, -0.16, 0.044470858), (1.77, -0.58, 0.04145898), (1.77, -0.16, 0.04145898), (1.7775, -0.58, 0.038497925), (1.7775, -0.16, 0.038497925), (1.785, -0.58, 0.0355958), (1.785, -0.16, 0.0355958), (1.7925, -0.58, 0.03276057), (1.7925, -0.16, 0.03276057), (1.8, -0.58, 0.03), (1.8, -0.16, 0.03), (1.8075, -0.58, 0.027321657), (1.8075, -0.16, 0.027321657), (1.815, -0.58, 0.024732884), (1.815, -0.16, 0.024732884), (1.8225, -0.58, 0.022240777), (1.8225, -0.16, 0.022240777), (1.83, -0.58, 0.019852163), (1.83, -0.16, 0.019852163), (1.8375, -0.58, 0.017573593), (1.8375, -0.16, 0.017573593), (1.845, -0.58, 0.015411311), (1.845, -0.16, 0.015411311), (1.8525, -0.58, 0.013371242), (1.8525, -0.16, 0.013371242), (1.86, -0.58, 0.01145898), (1.86, -0.16, 0.01145898), (1.8675, -0.58, 0.009679766), (1.8675, -0.16, 0.009679766), (1.875, -0.58, 0.008038476), (1.875, -0.16, 0.008038476), (1.8825, -0.58, 0.0065396084), (1.8825, -0.16, 0.0065396084), (1.89, -0.58, 0.0051872726), (1.89, -0.16, 0.0051872726), (1.8975, -0.58, 0.0039851745), (1.8975, -0.16, 0.0039851745), (1.905, -0.58, 0.002936609), (1.905, -0.16, 0.002936609), (1.9125, -0.58, 0.0020444505), (1.9125, -0.16, 0.0020444505), (1.92, -0.58, 0.001311144), (1.92, -0.16, 0.001311144), (1.9275, -0.58, 0.0007386996), (1.9275, -0.16, 0.0007386996), (1.935, -0.58, 0.0003286863), (1.935, -0.16, 0.0003286863), (1.9425, -0.58, 0.00008222792), (1.9425, -0.16, 0.00008222792), (1.95, -0.58, 1.5407199e-31), (1.95, -0.16, 1.5407199e-31), (1.9575, -0.58, 0.00008222792), (1.9575, -0.16, 0.00008222792), (1.965, -0.58, 0.0003286863), (1.965, -0.16, 0.0003286863), (1.9725, -0.58, 0.0007386996), (1.9725, -0.16, 0.0007386996), (1.98, -0.58, 0.001311144), (1.98, -0.16, 0.001311144), (1.9875, -0.58, 0.0020444505), (1.9875, -0.16, 0.0020444505), (1.995, -0.58, 0.002936609), (1.995, -0.16, 0.002936609), (2.0025, -0.58, 0.0039851745), (2.0025, -0.16, 0.0039851745), (2.01, -0.58, 0.0051872726), (2.01, -0.16, 0.0051872726), (2.0175, -0.58, 0.0065396084), (2.0175, -0.16, 0.0065396084), (2.025, -0.58, 0.008038476), (2.025, -0.16, 0.008038476), (2.0325, -0.58, 0.009679766), (2.0325, -0.16, 0.009679766), (2.04, -0.58, 0.01145898), (2.04, -0.16, 0.01145898), (2.0475, -0.58, 0.013371242), (2.0475, -0.16, 0.013371242), (2.055, -0.58, 0.015403551), (2.055, -0.16, 0.015403551), (2.0625, -0.58, 0.017518343), (2.0625, -0.16, 0.017518343), (2.07, -0.58, 0.019692648), (2.07, -0.16, 0.019692648), (2.0775, -0.58, 0.021903712), (2.0775, -0.16, 0.021903712), (2.085, -0.58, 0.024127629), (2.085, -0.16, 0.024127629), (2.0925, -0.58, 0.026339648), (2.0925, -0.16, 0.026339648), (2.1, -0.58, 0.028514532), (2.1, -0.16, 0.028514532), (2.1075, -0.58, 0.030626893), (2.1075, -0.16, 0.030626893), (2.115, -0.58, 0.03265155), (2.115, -0.16, 0.03265155), (2.1225, -0.58, 0.034563906), (2.1225, -0.16, 0.034563906), (2.13, -0.58, 0.036340278), (2.13, -0.16, 0.036340278), (2.1375, -0.58, 0.03795825), (2.1375, -0.16, 0.03795825), (2.145, -0.58, 0.039397016), (2.145, -0.16, 0.039397016), (2.1525, -0.58, 0.040637676), (2.1525, -0.16, 0.040637676), (2.16, -0.58, 0.041663524), (2.16, -0.16, 0.041663524), (2.1675, -0.58, 0.042460322), (2.1675, -0.16, 0.042460322), (2.175, -0.58, 0.043016512), (2.175, -0.16, 0.043016512), (2.1825, -0.58, 0.04332342), (2.1825, -0.16, 0.04332342), (2.19, -0.58, 0.043375395), (2.19, -0.16, 0.043375395), (2.1975, -0.58, 0.043169945), (2.1975, -0.16, 0.043169945), (2.205, -0.58, 0.04270778), (2.205, -0.16, 0.04270778), (2.2125, -0.58, 0.04199286), (2.2125, -0.16, 0.04199286), (2.22, -0.58, 0.041032374), (2.22, -0.16, 0.041032374), (2.2275, -0.58, 0.039836664), (2.2275, -0.16, 0.039836664), (2.235, -0.58, 0.03841913), (2.235, -0.16, 0.03841913), (2.2425, -0.58, 0.03679609), (2.2425, -0.16, 0.03679609), (2.25, -0.58, 0.03498656), (2.25, -0.16, 0.03498656), (2.2575, -0.58, 0.033012055), (2.2575, -0.16, 0.033012055), (2.265, -0.58, 0.030896325), (2.265, -0.16, 0.030896325), (2.2725, -0.58, 0.028665032), (2.2725, -0.16, 0.028665032), (2.28, -0.58, 0.026345458), (2.28, -0.16, 0.026345458), (2.2875, -0.58, 0.023966137), (2.2875, -0.16, 0.023966137), (2.295, -0.58, 0.0215565), (2.295, -0.16, 0.0215565), (2.3025, -0.58, 0.019146493), (2.3025, -0.16, 0.019146493), (2.31, -0.58, 0.016766187), (2.31, -0.16, 0.016766187), (2.3175, -0.58, 0.014445387), (2.3175, -0.16, 0.014445387), (2.325, -0.58, 0.012213239), (2.325, -0.16, 0.012213239), (2.3325, -0.58, 0.010097857), (2.3325, -0.16, 0.010097857), (2.34, -0.58, 0.00812594), (2.34, -0.16, 0.00812594), (2.3475, -0.58, 0.0063224295), (2.3475, -0.16, 0.0063224295), (2.355, -0.58, 0.004710176), (2.355, -0.16, 0.004710176), (2.3625, -0.58, 0.0033096364), (2.3625, -0.16, 0.0033096364), (2.37, -0.58, 0.0021386035), (2.37, -0.16, 0.0021386035), (2.3775, -0.58, 0.0012119692), (2.3775, -0.16, 0.0012119692), (2.385, -0.58, 0.00054152694), (2.385, -0.16, 0.00054152694), (2.3925, -0.58, 0.00013581436), (2.3925, -0.16, 0.00013581436), (2.4, -0.58, 0), (2.4, -0.16, 0)]
        color3f[] primvars:displayColor = [(0.82, 0.48, 0.22)]
        uniform token subdivisionScheme = "none"
    }

    def Camera "Side"
    {
        float2 clippingRange = (0.01, 100)
        float focalLength = 30
        matrix4d xformOp:transform = ( (-1, 0, 0, 0), (0, -0.2587360852240836, 0.9659480515032453, -0), (0, 0.9659480515032453, 0.2587360852240836, -0), (0.5, 2.8, 1.2500000000000002, 1) )
        uniform token[] xformOpOrder = ["xformOp:transform"]
    }

    def Camera "Top"
    {
        float2 clippingRange = (0.01, 100)
        float focalLength = 30
        matrix4d xformOp:transform = ( (0, -1, 0, 0), (1, 0, 0, 0), (0, 0, 1, 0), (0.5, -0, 3.8, 1) )
        uniform token[] xformOpOrder = ["xformOp:transform"]
    }
}

